<?xml version="1.0" standalone="no"?>
<!DOCTYPE svg PUBLIC "-//W3C//DTD SVG 20010904//EN"
 "http://www.w3.org/TR/2001/REC-SVG-20010904/DTD/svg10.dtd">
<svg version="1.0" xmlns="http://www.w3.org/2000/svg"
 width="2360.000000pt" height="1580.000000pt" viewBox="0 0 2360.000000 1580.000000"
 preserveAspectRatio="xMidYMid meet">
<metadata>
Created by potrace 1.16, written by Peter Selinger 2001-2019
</metadata>
<g transform="translate(0.000000,1580.000000) scale(0.100000,-0.100000)"
fill="#000000" stroke="none">
<path d="M0 7900 l0 -7900 11800 0 11800 0 0 7900 0 7900 -11800 0 -11800 0 0
-7900z m8438 4114 c-3 -3 -52 -18 -109 -35 -474 -136 -1629 -523 -1637 -549
-2 -6 -8 -8 -13 -5 -9 6 -281 -97 -765 -289 -285 -113 -324 -126 -324 -106 0
52 1407 551 2520 894 313 96 341 103 328 90z m8222 -2680 c-8 -2 -114 -19
-235 -38 -121 -19 -321 -53 -445 -76 -124 -23 -252 -46 -285 -51 -55 -9 -84
-19 -57 -19 7 0 12 -7 12 -15 0 -9 -9 -15 -21 -15 -15 0 -19 5 -15 15 6 17 -9
21 -19 5 -3 -5 -12 -10 -18 -10 -7 0 -6 4 3 11 12 8 10 10 -10 6 -14 -3 -46
-9 -72 -12 -27 -4 -48 -10 -49 -14 -1 -3 -2 -19 -3 -35 -1 -31 -32 -51 -52
-34 -15 11 -47 -19 -40 -38 3 -8 1 -14 -5 -14 -6 0 -7 -5 -4 -10 4 -6 15 -8
26 -5 11 4 19 2 19 -5 0 -7 10 -21 23 -31 l22 -20 -26 16 c-23 14 -27 14 -32
1 -4 -10 -1 -13 9 -9 9 3 14 -1 14 -11 0 -14 4 -15 21 -6 17 10 18 14 8 27
-11 12 -9 18 11 33 21 16 26 17 33 4 4 -8 6 -18 2 -23 -3 -5 -1 -12 3 -15 15
-9 2 -53 -22 -79 -21 -23 -32 -87 -14 -87 15 0 -15 -48 -38 -61 -13 -7 -24
-16 -24 -21 0 -4 -8 -8 -17 -8 -16 -1 -15 -2 2 -12 11 -7 25 -17 32 -23 6 -7
34 -23 62 -36 28 -13 51 -27 51 -31 0 -8 -34 3 -78 26 l-28 14 -1 -53 c-1 -42
-6 -57 -27 -78 -14 -14 -26 -21 -26 -16 0 6 -12 -3 -26 -20 -14 -17 -30 -28
-36 -25 -6 4 -5 10 3 15 11 7 11 9 1 9 -7 0 -15 -7 -19 -16 -5 -13 -7 -13 -14
-2 -7 11 -11 10 -19 -2 -5 -8 -10 -10 -10 -5 -1 6 -5 0 -10 -13 -5 -12 -11
-25 -12 -29 -7 -16 34 -9 59 10 17 14 28 17 30 10 3 -7 12 -9 21 -6 13 4 14 3
3 -5 -7 -5 -23 -7 -35 -4 -12 3 -17 1 -13 -4 5 -5 10 -7 12 -4 6 8 34 -33 35
-49 0 -10 -6 -8 -21 7 -11 12 -24 20 -29 17 -6 -4 -7 2 -3 11 5 13 3 15 -7 9
-8 -5 -33 -10 -57 -11 l-43 -3 27 23 c23 20 24 23 9 29 -13 5 -19 1 -23 -13
-4 -15 -11 -19 -24 -15 -11 4 -19 2 -19 -5 0 -6 4 -8 10 -5 6 3 7 -1 4 -9 -7
-18 -24 -12 -24 9 0 15 -38 17 -57 3 -6 -5 -21 -28 -33 -50 -17 -33 -19 -43
-8 -50 10 -8 10 -9 -2 -5 -10 3 -20 -5 -27 -20 -10 -20 -9 -24 2 -19 7 2 16
-2 19 -10 4 -11 0 -13 -18 -8 -21 5 -26 1 -36 -33 -7 -21 -16 -40 -19 -43 -17
-14 -31 -53 -25 -74 6 -27 -5 -39 -26 -26 -11 7 -5 28 34 109 26 56 48 110 49
121 1 10 4 17 8 15 9 -6 39 64 44 103 4 29 2 32 -15 27 -16 -5 -19 -3 -13 11
4 12 3 15 -6 10 -18 -12 -51 23 -51 54 0 16 7 30 16 34 17 6 10 26 -9 26 -8 0
-7 -3 2 -9 11 -7 9 -10 -8 -16 -13 -4 -25 -4 -28 -1 -4 3 -1 6 5 6 16 0 2 31
-23 52 l-20 17 20 1 c15 0 25 12 37 44 15 41 15 50 -2 121 -5 21 1 35 15 35 8
0 15 4 15 9 0 12 -54 51 -69 51 -6 0 -11 4 -11 10 0 6 9 6 26 -1 15 -5 29 -7
32 -5 2 3 17 -3 31 -13 24 -16 80 -37 68 -24 -5 4 4 15 50 65 9 10 20 15 24
12 5 -3 9 -1 9 5 0 5 -9 13 -20 16 -24 8 -25 15 -6 41 13 17 12 21 -1 37 -9 9
-22 17 -30 17 -8 0 -11 4 -8 10 4 6 -1 7 -11 3 -11 -4 -13 -8 -6 -11 15 -5 16
-48 1 -58 -8 -4 -7 -9 2 -16 9 -6 2 -7 -21 -2 -19 4 -45 8 -57 8 -11 1 -19 4
-16 9 2 4 0 7 -6 7 -5 0 -13 9 -16 20 -3 11 -11 20 -16 20 -6 0 -7 -4 -4 -10
3 -5 -1 -10 -10 -10 -9 0 -14 4 -11 9 4 5 -10 5 -32 1 -20 -5 -77 -16 -127
-25 -382 -70 -1187 -250 -1790 -401 -531 -133 -694 -178 -1150 -321 -769 -240
-815 -253 -815 -223 0 23 92 58 385 144 236 69 334 96 640 175 171 44 398 103
505 131 544 143 1293 322 1740 415 505 106 747 156 760 158 8 2 31 8 50 14 19
6 52 14 73 18 23 4 37 11 37 20 0 8 5 15 11 15 5 0 8 -4 4 -9 -3 -5 -1 -12 5
-16 5 -3 10 -1 10 4 0 6 5 11 11 11 5 0 7 -5 3 -11 -4 -8 -1 -8 13 -1 11 6 41
12 66 14 26 2 47 7 47 11 0 5 5 5 10 2 6 -3 10 -1 10 4 0 6 -4 11 -10 11 -5 0
-7 7 -4 15 8 20 43 19 51 -1 4 -12 10 -8 24 16 11 17 17 35 15 39 -3 4 1 8 8
8 7 0 13 -6 13 -14 0 -7 -3 -13 -7 -13 -8 0 -32 -51 -27 -56 7 -7 163 23 186
35 12 7 25 10 30 7 8 -5 126 13 751 114 129 21 249 38 265 38 17 0 23 -2 15
-4z m-2274 -1488 c9 -19 8 -23 -4 -22 -8 0 -17 -6 -19 -14 -3 -11 -2 -11 4 -3
11 16 53 5 53 -14 0 -8 5 -11 10 -8 6 3 10 1 10 -4 0 -6 -4 -11 -10 -11 -16 0
-11 -19 9 -37 11 -9 17 -21 14 -26 -3 -6 -1 -7 5 -3 17 10 25 -13 10 -31 -9
-12 -9 -15 0 -9 8 5 12 1 12 -10 0 -10 -3 -14 -7 -11 -3 4 -12 -1 -19 -11 -9
-13 -9 -19 -1 -24 9 -6 8 -8 -1 -8 -7 0 -11 -4 -7 -9 3 -6 -6 -8 -21 -5 -16 3
-39 -4 -62 -18 -20 -12 -43 -23 -50 -24 -33 -5 -42 -16 -48 -53 -3 -22 -13
-42 -21 -46 -13 -4 -11 -10 10 -29 20 -19 23 -25 12 -30 -10 -3 -14 -18 -13
-45 1 -22 5 -38 10 -35 4 3 8 0 8 -5 0 -18 -24 -13 -42 8 -9 11 -16 21 -15 23
1 2 -6 -4 -15 -14 -9 -10 -19 -14 -22 -9 -4 5 0 12 6 14 7 3 3 6 -9 6 -13 1
-23 5 -23 10 0 4 -11 7 -25 6 -14 -2 -28 1 -31 6 -3 6 6 9 21 7 22 -2 28 2 31
21 4 20 2 22 -11 11 -9 -7 -18 -10 -22 -6 -3 3 -1 6 5 6 6 0 9 9 7 19 -5 25
-35 71 -46 71 -5 0 -9 9 -9 20 0 11 5 20 11 20 6 0 9 9 6 20 -3 11 -1 18 3 15
15 -9 32 35 25 66 -4 16 -10 27 -14 25 -4 -3 -8 1 -8 9 0 8 4 12 9 9 10 -7 6
35 -5 54 -5 7 -2 14 7 18 9 3 13 11 10 18 -3 6 2 2 10 -8 12 -15 16 -16 16 -5
0 9 3 10 8 3 10 -16 48 0 61 24 6 11 8 22 4 25 -3 4 2 9 11 13 15 6 15 7 -1
20 -10 7 -13 13 -8 13 16 0 45 -25 38 -32 -3 -4 -2 -7 3 -8 5 0 19 -2 31 -3
13 -2 21 0 18 2 -9 10 27 41 41 35 12 -5 19 7 15 30 -2 16 15 5 25 -17z m-706
-353 c0 13 -5 22 -12 20 -4 -2 -5 3 -2 10 7 18 41 19 48 1 3 -9 10 -13 15 -9
5 3 13 0 16 -5 10 -16 -26 -52 -47 -47 -27 7 -33 -12 -7 -21 l22 -9 -22 -15
c-15 -11 -18 -17 -9 -20 10 -4 9 -10 -5 -31 -20 -32 -22 -48 -3 -41 14 5 93
-103 82 -113 -3 -4 -6 -1 -6 5 0 7 -4 12 -10 12 -5 0 -6 -8 -3 -17 6 -16 5
-16 -10 -4 -15 12 -17 12 -11 -2 4 -12 14 -15 35 -10 19 3 29 1 29 -6 0 -7 -5
-9 -12 -5 -10 6 -10 4 0 -8 10 -13 10 -17 0 -21 -10 -4 -10 -6 0 -6 7 -1 15 6
18 14 4 8 10 15 16 15 5 0 6 -5 2 -12 -5 -8 -2 -9 9 -5 11 4 17 1 17 -7 0 -7
7 -13 15 -13 8 0 15 4 15 9 0 24 41 -32 46 -63 5 -29 10 -36 24 -32 10 3 20
-2 24 -12 5 -13 2 -15 -15 -10 -15 5 -19 4 -15 -4 4 -6 1 -11 -7 -11 -10 0
-13 -8 -9 -25 4 -23 13 -30 35 -26 4 0 7 -4 7 -10 0 -6 -7 -9 -15 -6 -8 4 -17
1 -21 -5 -4 -7 -3 -8 4 -4 7 4 12 1 12 -9 0 -9 -4 -13 -10 -10 -5 3 -10 -1
-10 -9 0 -9 6 -16 13 -16 7 -1 5 -6 -6 -14 -16 -13 -16 -14 0 -27 15 -12 16
-12 8 1 -6 12 -5 12 5 3 7 -7 9 -16 4 -25 -12 -18 -12 -58 0 -51 6 4 6 -1 2
-13 -5 -15 -4 -16 5 -7 14 14 42 5 32 -11 -4 -6 0 -5 9 2 14 11 16 11 14 0 -3
-23 -21 -43 -38 -44 -10 -1 -18 2 -18 8 0 5 -5 6 -12 2 -6 -4 -8 -3 -5 3 4 6
-1 17 -10 24 -10 9 -14 9 -10 2 5 -7 -2 -19 -18 -29 -14 -9 -25 -23 -25 -31 0
-8 -4 -12 -8 -9 -10 6 -26 -23 -38 -64 -10 -36 -47 -77 -67 -74 -9 1 -17 -2
-17 -7 0 -6 -4 -7 -10 -4 -5 3 -19 1 -30 -5 -16 -9 -18 -8 -14 5 3 8 11 12 17
8 5 -3 7 -1 3 5 -3 5 0 13 6 15 9 4 9 6 1 6 -6 1 -18 -6 -27 -14 -16 -17 -76
-21 -76 -5 0 6 -9 10 -20 10 -21 0 -27 19 -10 36 6 6 0 10 -18 9 -22 0 -28 5
-30 29 -3 26 -6 28 -35 22 -23 -5 -29 -4 -20 5 6 6 9 18 6 25 -3 9 2 14 13 14
16 0 16 2 -4 20 -23 21 -42 26 -42 10 0 -5 -10 -18 -22 -30 -18 -17 -19 -20
-5 -20 28 0 19 -24 -21 -61 -43 -39 -51 -69 -18 -62 20 3 20 3 -1 -6 -19 -9
-21 -17 -19 -73 2 -58 4 -63 24 -62 12 1 22 -3 22 -9 0 -6 3 -7 7 -4 8 8 33
-39 33 -62 0 -13 -9 -17 -35 -18 -40 -1 -52 11 -35 32 10 12 9 15 -3 15 -8 0
-17 -6 -20 -12 -4 -10 -7 -10 -17 -1 -11 10 -11 15 0 28 11 13 10 14 -5 9 -14
-6 -16 -3 -11 17 3 13 3 18 0 11 -5 -10 -9 -10 -20 -1 -8 6 -14 17 -14 23 -1
12 -68 46 -91 46 -12 0 -11 -2 1 -10 13 -9 13 -10 0 -11 -31 -3 -65 3 -74 12
-6 5 -20 9 -32 9 -26 0 -38 -34 -18 -51 18 -15 18 -29 -1 -29 -10 0 -15 -10
-15 -31 0 -25 3 -30 17 -25 10 4 14 4 11 0 -4 -3 -1 -22 7 -41 19 -45 19 -63
-1 -78 -19 -13 -31 -80 -12 -69 8 5 9 2 5 -9 -3 -10 -2 -17 3 -17 6 0 10 5 10
11 0 5 5 7 11 3 6 -3 7 -9 3 -13 -16 -11 -40 -45 -26 -37 7 4 12 2 12 -4 0 -7
7 -9 17 -6 10 4 14 4 10 -1 -12 -12 85 -31 101 -20 8 6 12 6 12 -1 0 -6 12
-10 26 -9 15 1 29 -4 32 -12 2 -8 0 -11 -5 -8 -6 4 -10 -5 -9 -21 1 -20 9 -31
34 -44 37 -18 57 -35 30 -25 -12 4 -15 2 -11 -9 3 -7 0 -14 -6 -14 -7 0 -16
-10 -21 -22 -9 -23 -9 -23 -10 2 -1 24 -1 24 -15 6 -8 -11 -15 -25 -15 -30 0
-6 4 -5 9 2 5 8 8 -3 7 -30 -1 -33 6 -52 28 -81 18 -24 26 -41 19 -45 -6 -4
-13 -17 -17 -29 -4 -13 -12 -23 -18 -23 -11 0 22 -26 59 -47 19 -11 21 -10 16
3 -4 12 0 15 18 12 15 -2 24 -9 23 -20 -1 -10 7 -20 18 -24 11 -3 17 -12 15
-19 -3 -7 1 -24 8 -39 8 -14 10 -28 6 -30 -12 -8 -12 -73 1 -84 7 -5 22 -12
33 -14 11 -2 19 -9 18 -15 -1 -6 6 -9 19 -5 16 4 19 2 14 -9 -4 -8 -1 -6 8 5
16 20 53 15 40 -5 -4 -8 -3 -9 4 -5 7 4 12 14 12 22 0 8 5 14 11 14 5 0 8 -4
5 -9 -3 -5 4 -11 15 -14 13 -4 18 -10 13 -18 -5 -8 -1 -11 13 -7 12 3 20 0 20
-8 0 -7 -4 -11 -8 -9 -4 3 -12 -9 -18 -26 -9 -26 -8 -30 4 -25 16 6 20 -5 8
-18 -4 -4 -8 -17 -8 -29 0 -15 -6 -22 -17 -21 -10 1 -16 -1 -14 -5 2 -3 -10
-16 -25 -29 -16 -13 -29 -19 -29 -14 0 6 -13 4 -29 -4 -17 -8 -39 -17 -51 -19
-34 -6 -40 -15 -40 -52 0 -34 26 -94 44 -102 4 -2 3 -7 -4 -11 -22 -13 -1 -30
30 -23 23 4 30 2 30 -11 0 -9 5 -16 10 -16 6 0 10 -17 10 -37 0 -28 3 -34 10
-23 5 8 10 10 10 4 0 -17 -48 -46 -55 -34 -4 7 -17 4 -36 -7 -21 -13 -25 -19
-15 -25 8 -4 11 -18 8 -33 -2 -14 0 -25 5 -25 5 0 10 -7 10 -15 0 -18 -2 -18
-28 -4 -14 7 -18 16 -14 27 5 14 4 15 -7 4 -10 -10 -7 -17 14 -37 15 -14 33
-25 40 -25 9 0 9 -3 -2 -10 -12 -8 -11 -10 8 -10 16 0 22 -6 23 -22 1 -17 2
-19 6 -5 5 21 31 23 39 3 3 -8 13 -12 22 -9 13 3 14 2 4 -4 -7 -6 -10 -17 -6
-27 6 -15 23 -17 150 -15 92 0 143 5 141 11 -1 6 4 13 11 15 7 3 10 -1 6 -10
-5 -13 3 -15 48 -11 29 2 75 6 102 7 29 1 51 7 53 15 3 6 0 12 -7 12 -6 0 -8
5 -4 11 4 7 14 3 28 -13 20 -23 25 -24 189 -25 104 -1 165 2 162 8 -4 5 -3 18
0 30 6 18 9 19 23 6 13 -11 23 -12 42 -5 l25 9 -27 15 c-19 10 -26 20 -23 35
6 30 10 32 41 25 14 -4 24 -10 21 -13 -4 -3 -2 -15 4 -26 6 -10 7 -17 2 -14
-5 4 -10 0 -10 -6 0 -16 34 -20 43 -5 4 7 2 8 -4 4 -8 -5 -10 -2 -6 8 3 9 10
14 14 11 5 -3 7 3 6 12 -2 10 7 27 19 38 28 24 28 77 1 118 -15 21 -22 25 -32
16 -8 -6 -21 -9 -29 -5 -8 3 -17 6 -20 6 -11 0 -45 41 -45 53 0 7 5 18 12 25
10 10 7 16 -10 27 -16 12 -20 22 -16 44 3 16 1 31 -4 35 -6 3 -8 -2 -5 -13 3
-10 0 -22 -6 -25 -7 -5 -11 3 -11 18 0 14 0 29 -1 34 0 4 8 9 18 11 10 2 21 8
25 14 4 6 17 12 30 12 16 0 24 7 26 23 3 21 22 32 22 12 0 -5 5 -10 10 -10 6
0 10 13 10 29 0 17 5 33 10 36 6 4 8 10 5 14 -2 5 4 16 14 25 22 20 104 24
125 6 17 -13 50 15 42 36 -3 8 -2 14 2 14 4 0 8 11 8 25 1 15 -3 25 -12 25 -8
0 -14 5 -14 10 0 6 -7 10 -15 10 -8 0 -15 5 -15 11 0 5 -4 7 -10 4 -5 -3 -10
-2 -10 4 0 5 10 12 23 14 19 4 18 4 -5 6 -19 1 -28 -4 -28 -14 0 -8 -4 -15 -9
-15 -5 0 -14 7 -21 15 -7 8 -21 15 -31 15 -11 0 -19 6 -19 14 0 16 53 27 72
14 10 -6 10 -8 -2 -9 -8 -1 -18 -1 -22 0 -13 2 -9 -16 6 -28 11 -9 17 -6 27
18 8 17 20 33 28 36 11 4 11 2 3 -8 -12 -14 -7 -27 10 -27 5 0 6 4 3 10 -3 6
1 7 9 4 9 -3 16 -12 16 -19 0 -7 7 -18 15 -25 12 -10 16 -9 21 4 3 9 10 13 15
10 5 -3 9 -1 9 5 0 20 143 71 203 71 17 0 19 2 7 10 -8 5 -11 12 -8 16 4 3 14
-1 23 -10 12 -11 13 -16 4 -16 -10 0 -10 -3 -1 -12 10 -10 15 -10 22 2 8 12
10 12 10 1 0 -9 8 -11 28 -7 22 5 24 4 10 -4 -16 -10 -17 -14 -3 -47 19 -45
19 -50 -4 -58 -13 -4 -17 -12 -13 -31 3 -16 9 -23 18 -20 8 3 18 -4 24 -17 10
-20 10 -21 -3 -4 -10 11 -16 14 -19 7 -2 -7 -20 -12 -41 -13 -22 -1 -32 -4
-24 -9 9 -6 8 -8 -4 -8 -9 0 -23 -8 -32 -18 -15 -17 -15 -19 3 -35 11 -9 27
-17 35 -17 9 0 12 -6 9 -15 -4 -10 0 -15 14 -15 42 0 35 -52 -9 -63 -15 -4
-19 -2 -15 9 3 9 1 12 -4 9 -12 -7 -14 -35 -2 -34 4 0 16 4 27 8 11 5 32 5 47
0 19 -5 31 -3 39 7 16 20 26 17 33 -8 5 -19 8 -21 16 -8 6 10 10 11 10 3 0
-13 59 -11 80 2 4 3 18 -8 30 -25 23 -32 53 -41 48 -14 -2 10 3 19 11 22 10 3
12 0 7 -13 -4 -13 -2 -16 9 -11 8 3 15 0 16 -7 0 -9 2 -8 6 1 4 10 8 10 20 1
12 -11 12 -9 2 15 -9 20 -10 32 -2 44 13 22 -7 45 -24 27 -14 -15 -86 -12 -91
4 -2 6 8 11 23 11 14 0 24 4 21 9 -3 5 16 7 43 4 27 -2 59 0 70 6 14 8 22 8
26 1 5 -8 11 -8 20 0 9 8 14 6 19 -5 3 -9 0 -15 -8 -15 -7 0 -13 -6 -14 -12
-1 -28 -12 -61 -24 -77 -10 -12 -8 -12 8 2 20 17 22 17 28 1 4 -9 4 -26 1 -38
-3 -12 -2 -15 1 -8 8 17 44 15 44 -3 0 -18 1 -18 34 -5 21 8 26 6 26 -6 0 -8
-4 -13 -9 -10 -17 11 -41 -6 -41 -28 0 -17 2 -18 10 -6 8 13 10 13 10 -2 0 -9
5 -20 11 -24 8 -5 10 1 7 17 -4 20 0 25 18 27 21 2 23 -2 20 -36 -3 -40 18
-102 34 -102 6 0 10 5 10 10 0 6 -4 10 -10 10 -5 0 -10 4 -10 10 0 5 7 7 15 4
17 -7 21 -44 4 -44 -20 0 -40 -30 -34 -50 4 -12 2 -20 -5 -20 -6 0 -10 -6 -7
-12 2 -7 9 -12 15 -11 11 3 10 -36 -2 -55 -3 -6 -2 -13 4 -17 19 -12 10 -35
-12 -35 -50 0 5 -17 63 -19 44 -2 59 1 57 11 -2 7 4 13 12 13 8 0 14 -5 13
-11 -2 -12 106 -22 277 -24 57 0 106 -3 109 -6 2 -2 -89 -4 -202 -4 -160 0
-206 -3 -204 -12 1 -7 -7 -13 -18 -13 -11 0 -19 6 -18 13 4 15 -172 17 -182 2
-3 -5 -22 -10 -41 -10 -24 0 -34 -5 -34 -15 0 -8 -4 -15 -8 -15 -4 0 -8 -9 -8
-20 0 -27 13 -25 22 2 l7 23 9 -24 c6 -19 4 -29 -8 -40 -9 -9 -14 -10 -10 -3
4 6 2 12 -3 12 -15 0 -14 -33 1 -48 8 -8 8 -15 -1 -26 -10 -12 -8 -19 8 -35
15 -15 19 -30 16 -65 -3 -33 0 -46 10 -46 7 0 17 -12 23 -27 16 -43 22 -56 37
-83 15 -25 15 -25 15 -2 0 13 6 22 15 22 8 0 15 -4 15 -10 0 -5 -4 -10 -10
-10 -5 0 -7 -7 -4 -15 4 -9 0 -15 -7 -15 -11 0 -12 -2 -1 -9 7 -4 13 -27 14
-50 0 -25 8 -51 19 -65 22 -28 25 -50 6 -43 -18 7 -16 -115 2 -137 7 -8 10
-20 6 -26 -4 -6 -4 -24 0 -40 6 -26 9 -28 31 -19 14 5 33 9 42 9 15 -1 14 -3
-3 -16 -20 -16 -20 -16 1 -10 14 4 21 2 21 -8 0 -8 -3 -14 -6 -13 -3 1 -6 -2
-6 -8 0 -5 6 -9 13 -9 6 1 12 -2 12 -7 0 -5 -4 -9 -10 -9 -5 0 -9 -3 -7 -7 1
-5 -2 -8 -8 -8 -5 0 -9 6 -7 13 2 8 -7 12 -27 10 -16 -1 -36 4 -45 11 -13 11
-17 11 -22 -3 -11 -28 16 -48 52 -41 29 5 36 2 56 -26 13 -17 33 -35 46 -40
27 -10 29 -44 5 -72 -17 -19 -17 -20 0 -14 9 4 17 2 17 -2 0 -14 -23 -19 -42
-10 -15 8 -16 4 -11 -28 3 -21 12 -42 20 -46 46 -27 71 -97 41 -111 -7 -3 -3
-3 9 -1 12 3 25 0 29 -6 5 -8 3 -9 -6 -4 -9 5 -11 4 -6 -3 12 -19 29 -14 23 7
-3 12 0 18 7 15 13 -5 14 -73 1 -95 -7 -11 -6 -12 7 -2 8 7 18 9 22 5 7 -7 11
-8 37 -11 5 0 7 -6 3 -13 -5 -7 -2 -9 9 -5 12 4 14 2 10 -11 -6 -15 -5 -16 13
-2 18 14 18 14 1 -6 -18 -22 -58 -25 -65 -6 -2 7 -8 12 -14 12 -6 0 -7 -7 -4
-16 3 -8 2 -12 -3 -9 -5 3 -13 0 -17 -6 -5 -8 -3 -9 6 -4 10 6 12 4 7 -9 -5
-13 -1 -19 13 -23 11 -3 20 -10 20 -17 0 -7 3 -6 8 2 11 17 42 4 35 -14 -3 -8
1 -14 8 -14 8 0 32 -14 53 -30 22 -17 46 -30 53 -30 8 0 11 -4 8 -10 -3 -5 2
-10 12 -11 10 0 13 -3 7 -5 -18 -7 -3 -55 25 -82 14 -13 18 -19 9 -12 -15 10
-18 10 -18 -4 0 -10 -4 -15 -9 -11 -17 10 -21 -12 -6 -25 8 -7 15 -9 15 -4 1
14 40 -39 40 -53 0 -7 -7 -13 -15 -13 -16 0 -19 -9 -7 -25 11 -16 57 -37 73
-33 23 5 16 -26 -8 -37 -29 -12 -30 -41 -2 -55 12 -7 18 -17 15 -26 -14 -36
41 -77 64 -49 14 17 43 7 36 -11 -3 -8 2 -27 12 -44 17 -30 60 -50 108 -50 29
0 35 -9 21 -31 -11 -18 -12 -18 -24 4 -8 12 -13 15 -12 7 3 -30 -1 -41 -13
-34 -7 4 -8 3 -4 -5 5 -7 12 -9 19 -3 11 7 23 8 45 3 4 -2 -2 -6 -12 -10 -19
-7 -19 -8 0 -13 22 -6 29 17 12 39 -7 9 -4 9 16 0 19 -9 22 -15 13 -25 -8 -11
-8 -13 4 -12 29 4 37 -1 47 -28 8 -24 18 -30 66 -41 31 -7 56 -17 56 -22 0 -5
-5 -9 -11 -9 -5 0 -7 -5 -3 -11 3 -6 1 -15 -6 -19 -7 -4 0 -9 19 -13 33 -7 71
-39 71 -61 0 -7 7 -19 15 -26 22 -18 19 -50 -5 -50 -11 0 -20 -5 -20 -11 0 -7
10 -9 26 -5 21 6 35 0 65 -23 21 -17 43 -31 48 -31 6 0 11 -7 11 -15 0 -8 5
-15 11 -15 5 0 7 -4 4 -10 -3 -5 0 -16 7 -23 10 -12 15 -12 27 1 13 13 17 12
33 -8 9 -12 22 -19 27 -16 5 4 12 2 16 -4 11 -18 25 -11 26 13 0 14 3 17 6 7
10 -24 47 -58 68 -62 10 -2 22 -13 25 -25 3 -12 19 -32 35 -45 17 -12 38 -32
47 -43 11 -13 17 -15 18 -7 0 7 5 10 12 6 7 -4 8 -3 4 4 -4 6 -13 9 -21 5 -8
-3 -15 -1 -15 4 0 5 18 9 40 10 23 1 38 -2 35 -8 -4 -5 0 -9 8 -9 8 0 20 -7
28 -16 7 -8 20 -13 30 -11 10 3 27 -4 38 -14 11 -11 31 -19 45 -19 14 0 41 -9
61 -21 33 -20 37 -20 60 -5 14 9 25 21 25 27 0 6 15 9 36 7 26 -2 40 2 50 17
12 16 18 18 34 7 26 -16 27 -15 33 6 5 23 64 37 83 21 10 -8 21 -3 46 20 18
17 37 31 42 31 4 0 5 8 2 18 -4 10 1 7 13 -8 14 -18 22 -21 33 -13 22 17 70
23 64 7 -3 -8 0 -11 10 -7 7 3 14 9 14 14 0 6 10 5 21 -2 14 -7 19 -7 15 0 -4
5 3 20 14 31 11 11 18 25 15 30 -3 5 3 18 15 30 24 24 25 22 4 -29 -14 -37
-14 -41 5 -79 11 -21 31 -46 45 -55 13 -9 27 -30 31 -46 3 -16 13 -35 21 -42
9 -8 14 -25 12 -46 -2 -27 3 -37 32 -58 l34 -25 -31 0 c-28 0 -52 -24 -38 -38
3 -3 5 0 5 6 0 7 4 12 9 12 20 0 -3 -40 -42 -75 -38 -34 -40 -38 -23 -50 13
-10 16 -21 11 -49 -7 -32 -15 -41 -37 -37 -5 0 -8 -6 -8 -14 0 -11 12 -15 44
-15 27 0 51 -6 60 -16 19 -19 11 -37 -12 -30 -10 3 -23 2 -30 -3 -10 -6 -4
-10 19 -15 22 -4 35 -2 41 6 5 10 12 7 23 -9 9 -13 22 -23 30 -23 7 0 17 -9
20 -20 4 -11 11 -18 16 -14 5 3 7 10 4 15 -4 5 4 9 17 9 29 0 66 -39 48 -50
-7 -5 -2 -9 14 -12 19 -4 26 -1 27 11 0 10 2 12 6 4 5 -15 39 -17 47 -4 3 4
17 6 31 3 20 -3 25 -10 25 -33 0 -16 -4 -29 -10 -29 -5 0 -10 4 -10 9 0 5 -6
11 -14 14 -10 4 -12 0 -8 -15 4 -16 2 -19 -8 -13 -8 5 -11 4 -6 -3 4 -6 14 -8
23 -5 12 5 14 3 8 -8 -5 -8 0 -7 12 4 25 21 51 13 64 -20 5 -14 19 -26 37 -29
24 -5 28 -10 24 -30 -5 -28 4 -30 32 -6 20 16 20 16 6 -2 -14 -18 -13 -19 3
-13 12 5 16 3 11 -5 -5 -7 -2 -9 9 -5 11 4 14 2 10 -8 -3 -8 -9 -13 -13 -10
-11 7 -58 -37 -62 -59 -1 -10 -10 -22 -18 -26 -83 -41 -108 -55 -123 -73 -14
-16 -22 -19 -35 -11 -18 12 -95 -2 -87 -15 2 -4 -12 -13 -31 -20 -22 -8 -36
-21 -40 -37 -6 -22 -8 -23 -19 -8 -9 12 -14 14 -19 5 -4 -6 -16 -9 -26 -6 -13
4 -20 0 -25 -15 -3 -11 -15 -20 -25 -20 -11 0 -23 -7 -28 -16 -5 -9 -24 -17
-43 -19 -18 -1 -35 -7 -37 -13 -3 -11 -68 -9 -147 3 -22 4 -38 -2 -57 -19 -16
-13 -28 -28 -28 -35 0 -6 -7 -11 -16 -11 -11 0 -14 -6 -9 -20 5 -15 1 -22 -17
-29 -13 -5 -24 -5 -26 0 -2 5 -16 -1 -32 -12 -26 -20 -57 -19 -45 2 8 11 9 11
-56 -2 -30 -6 -90 -11 -135 -10 -51 1 -96 -4 -120 -13 -21 -8 -46 -14 -54 -14
-8 0 -26 -4 -39 -8 -20 -6 -23 -4 -18 9 8 22 -15 27 -59 12 -22 -8 -43 -10
-48 -5 -5 5 -33 0 -63 -12 -49 -18 -55 -18 -66 -4 -10 13 -19 14 -47 7 -55
-14 -160 -23 -160 -13 0 11 -372 8 -390 -3 -22 -13 -159 -13 -164 0 -5 14
-172 18 -197 4 -9 -4 -20 -4 -26 2 -6 6 -26 3 -57 -7 -32 -11 -64 -15 -97 -11
-29 4 -60 1 -75 -5 -17 -8 -30 -8 -47 0 -14 6 -72 9 -157 7 -255 -8 -537 -8
-549 -1 -6 4 -15 4 -21 1 -8 -5 -70 -6 -135 -3 -11 1 -148 -3 -305 -7 -157 -5
-303 -8 -325 -8 -22 0 -95 1 -163 2 -91 1 -121 4 -116 13 5 8 2 9 -12 3 -34
-15 -104 -18 -119 -5 -10 9 -19 9 -27 2 -15 -12 -36 -15 -102 -13 -48 1 -49 1
-31 21 17 19 17 19 -16 10 -18 -6 -41 -7 -51 -5 -9 3 -32 0 -50 -8 -22 -9 -60
-13 -109 -11 -40 2 -74 4 -74 5 0 0 -35 2 -78 4 -42 1 -83 8 -91 14 -8 7 -17
8 -20 3 -7 -12 -217 -14 -231 -2 -13 10 -85 13 -138 4 -22 -4 -43 -2 -51 5 -7
6 -82 15 -167 21 -85 6 -179 15 -209 20 -31 6 -81 12 -112 14 -31 3 -72 8 -92
11 -19 4 -52 8 -73 10 -21 1 -76 8 -122 14 -46 7 -91 9 -99 6 -8 -3 -29 -1
-46 4 -44 13 -146 19 -146 9 0 -5 4 -6 10 -3 6 3 7 -1 4 -9 -18 -46 -30 10
-13 61 6 18 11 47 11 65 0 18 4 38 8 43 18 22 52 330 59 517 3 108 9 199 12
202 3 4 26 -2 50 -13 24 -11 62 -27 84 -37 41 -17 78 -19 106 -3 13 6 14 18 8
63 -6 44 -18 70 -56 123 -27 38 -71 102 -97 143 -27 41 -67 97 -89 123 -40 48
-44 79 -5 40 l21 -21 25 29 c18 23 22 33 13 42 -16 16 -14 42 8 68 20 24 20
24 36 4 l17 -20 -8 20 c-7 20 -18 77 -29 149 -10 58 -101 146 -177 170 -52 16
-59 16 -80 2 -12 -9 -37 -16 -54 -16 -18 0 -38 -8 -48 -19 -54 -60 -181 -65
-331 -12 -67 23 -106 31 -155 30 l-65 -1 70 -15 c108 -23 112 -32 13 -33 -80
0 -91 -3 -155 -36 -37 -21 -88 -43 -113 -50 -25 -7 -37 -13 -28 -13 27 -2 30
-17 12 -77 -10 -34 -13 -69 -9 -91 5 -30 8 -33 22 -21 14 11 16 11 10 -4 -3
-9 -2 -30 3 -47 11 -40 -9 -67 -74 -97 -28 -14 -42 -22 -31 -20 94 21 91 22
101 -43 6 -37 4 -43 -14 -48 -17 -4 -18 -8 -9 -18 8 -9 16 -10 25 -3 7 6 31
21 55 33 29 16 52 39 74 78 25 41 44 60 77 77 41 19 50 20 108 10 77 -14 82
-18 66 -38 -12 -14 -10 -14 10 -3 13 7 26 10 29 8 3 -3 -9 -13 -27 -22 -43
-22 -74 -94 -66 -154 3 -24 10 -49 16 -56 5 -6 6 -15 2 -19 -4 -4 -2 -7 3 -5
6 1 21 -1 35 -5 14 -4 37 -3 50 3 25 10 25 10 3 16 -30 9 -71 72 -78 120 -6
35 -3 43 22 67 33 31 83 47 83 27 1 -8 14 -29 29 -47 26 -30 28 -37 19 -70 -8
-29 -7 -42 7 -64 9 -15 13 -28 10 -28 -4 0 10 -20 29 -44 37 -45 45 -81 27
-129 -6 -14 -7 -28 -4 -31 4 -4 12 -22 18 -40 16 -46 -7 -118 -79 -244 -74
-132 -134 -213 -218 -296 -46 -45 -67 -73 -63 -84 4 -12 3 -13 -10 -2 -12 10
-15 10 -15 -4 0 -9 6 -16 13 -16 6 0 1 -9 -13 -20 -24 -18 -95 -26 -84 -8 8
13 -10 9 -32 -7 -25 -19 -64 -19 -64 -1 0 11 -10 13 -40 9 -22 -3 -53 0 -68 6
-16 7 -43 13 -61 13 -17 1 -31 4 -31 8 0 3 -16 4 -35 2 -27 -3 -35 -1 -35 12
0 9 -5 16 -11 16 -5 0 -7 -4 -4 -10 3 -5 0 -7 -9 -4 -13 5 -46 8 -125 13 -19
1 -21 4 -12 15 11 13 -1 14 -81 11 -87 -3 -124 5 -139 27 -3 6 -52 12 -108 15
-66 4 -101 10 -101 17 0 7 -23 13 -60 14 -33 1 -72 7 -86 12 -14 6 -38 10 -54
10 -16 0 -31 4 -34 9 -8 12 -82 25 -123 22 -17 -1 -46 5 -63 14 -19 10 -42 14
-56 11 -13 -4 -24 -2 -24 3 0 13 -39 20 -135 26 -44 2 -97 11 -117 20 -21 8
-54 15 -75 16 -33 1 -35 2 -13 9 28 8 24 10 -53 29 -26 6 -86 11 -133 11 -47
0 -83 4 -80 9 3 5 -6 12 -19 15 -14 4 -23 10 -21 15 8 12 -29 21 -85 21 -32 0
-49 5 -53 15 -4 11 -21 15 -63 14 -65 -1 -176 24 -181 40 -2 6 -16 8 -33 4
-18 -3 -29 -1 -29 6 0 6 -15 11 -34 11 -19 0 -36 6 -39 14 -3 9 -30 16 -74 20
-37 4 -92 16 -121 27 -29 10 -63 19 -75 19 -12 0 -31 6 -42 14 -21 14 -134 51
-147 48 -5 -1 -8 2 -8 8 0 5 -17 10 -37 10 -33 0 -76 10 -128 31 -11 4 -31 10
-45 12 -57 12 -179 46 -230 66 -30 12 -72 21 -92 21 -20 0 -40 5 -43 10 -3 6
-21 10 -38 10 -18 1 -43 7 -57 15 -14 8 -37 14 -52 15 -16 0 -28 3 -28 8 0 9
-72 32 -99 32 -19 0 -83 16 -160 39 -19 6 -41 17 -50 24 -20 18 -55 26 -146
36 -91 11 -122 20 -129 37 -3 8 -12 14 -20 14 -8 0 -16 5 -18 11 -3 10 -71 29
-119 33 -15 1 -33 9 -42 18 -23 22 -116 50 -145 43 -34 -8 -152 31 -167 55 -3
6 -24 10 -47 10 -25 0 -49 8 -65 20 -14 11 -37 20 -50 20 -16 0 -22 4 -17 11
5 9 -7 10 -44 5 -34 -4 -53 -3 -58 5 -4 7 -20 9 -40 6 -22 -4 -37 -1 -45 9 -6
8 -22 14 -34 14 -12 0 -34 9 -47 20 -14 10 -28 17 -31 14 -3 -3 -13 6 -22 20
-15 23 -24 26 -70 26 -34 0 -59 5 -69 15 -8 8 -23 15 -33 15 -10 0 -36 7 -58
15 -22 8 -54 14 -71 15 -17 0 -39 8 -48 19 -16 17 -94 44 -113 39 -5 -1 -22 6
-40 15 -18 9 -40 17 -50 17 -10 0 -36 11 -58 25 -22 13 -50 25 -62 25 -13 0
-32 9 -43 20 -11 11 -38 23 -60 26 -22 4 -54 17 -71 30 -18 13 -36 21 -42 17
-5 -3 -13 0 -17 7 -4 7 -25 16 -46 20 -22 5 -57 14 -79 20 -22 7 -55 14 -72
17 -26 4 -33 10 -33 28 0 21 -6 24 -57 31 -33 4 -65 14 -77 25 -11 11 -29 19
-40 19 -20 1 -20 1 -2 15 18 14 18 14 -5 13 -13 0 -35 0 -48 1 l-24 1 23 25
c13 14 21 27 19 29 -3 3 -24 0 -47 -6 -32 -8 -52 -7 -89 4 -27 8 -66 14 -88
12 -22 -1 -48 4 -59 12 -11 8 -28 14 -38 14 -11 0 -18 7 -18 18 0 10 -6 24
-13 31 -10 10 -9 12 2 9 7 -2 16 3 19 11 2 8 0 11 -6 7 -10 -6 -26 23 -17 32
3 3 5 0 5 -6 0 -23 38 -12 102 32 16 10 32 14 40 10 13 -8 22 -9 101 -12 24
-1 37 -7 37 -16 0 -23 37 -26 57 -4 10 11 17 22 15 25 -2 2 9 14 23 25 18 14
23 24 16 31 -6 6 -5 15 5 24 13 13 21 13 67 -2 29 -9 71 -27 93 -40 23 -14 44
-22 47 -18 4 3 12 1 19 -4 7 -6 27 -15 43 -21 17 -6 62 -22 100 -37 39 -14
115 -37 170 -51 55 -14 187 -57 295 -96 107 -39 242 -88 300 -108 58 -21 157
-58 220 -83 173 -67 172 -67 201 -13 30 58 35 53 8 -8 -11 -26 -19 -49 -17
-50 8 -7 141 -57 156 -59 9 -1 22 -5 27 -8 6 -4 44 -16 85 -28 41 -13 113 -34
160 -48 47 -13 99 -31 115 -38 17 -7 65 -21 107 -31 42 -10 75 -21 72 -25 -5
-9 115 -24 123 -15 3 3 -5 9 -18 14 l-23 9 21 12 c13 7 21 20 20 33 -2 23 -39
66 -72 84 -11 5 -54 28 -95 49 -83 44 -157 98 -196 144 -14 17 -30 31 -35 31
-6 0 -19 8 -29 18 -45 42 -720 363 -794 378 -11 2 -22 7 -25 12 -3 5 -37 25
-76 44 -129 66 -170 87 -180 96 -5 4 -26 16 -45 26 -77 39 -90 47 -90 57 0 6
-5 7 -10 4 -5 -3 -10 0 -10 7 0 16 20 48 20 33 0 -6 12 -10 28 -9 15 1 34 3
42 4 11 0 10 4 -5 13 -22 13 -31 37 -15 37 5 0 10 -4 10 -10 0 -5 5 -10 10
-10 6 0 10 6 10 13 0 7 16 13 40 14 22 2 54 10 71 19 25 12 37 14 56 5 35 -16
57 -14 86 9 14 11 27 16 29 12 1 -5 15 -12 30 -16 21 -5 32 -1 48 16 13 14 16
24 9 29 -6 3 -11 21 -12 40 -2 30 1 34 28 39 17 4 38 3 47 -2 11 -5 22 -3 31
7 12 12 16 12 20 1 5 -13 61 -14 113 -2 11 3 43 2 70 -3 49 -7 94 2 94 21 0 4
9 8 20 8 13 0 20 7 20 20 0 11 4 20 8 20 4 0 9 10 9 22 1 13 7 24 12 26 5 2 7
11 4 19 -5 12 -2 15 10 10 8 -3 21 1 27 9 7 8 30 14 51 14 38 0 67 19 32 21
-17 1 -17 2 0 6 10 3 14 9 10 16 -4 7 1 6 10 -2 9 -7 28 -11 42 -9 20 4 23 2
15 -7 -8 -10 -7 -15 1 -21 8 -4 9 -3 5 4 -4 7 -1 12 9 12 11 0 15 5 12 14 -4
10 4 17 26 22 33 7 49 19 59 45 4 10 24 19 52 23 51 8 54 11 29 39 -17 18 -17
19 0 29 14 8 16 13 6 24 -8 10 -8 14 0 14 6 0 11 -4 11 -10 0 -5 7 -10 15 -10
8 0 15 5 15 10 0 6 5 10 11 10 6 0 9 -6 6 -14 -3 -8 0 -17 7 -19 9 -4 12 0 9
12 -6 23 52 50 69 33 9 -9 17 -7 31 6 19 16 19 16 13 -5 -9 -27 3 -29 44 -8
17 9 30 12 30 7 0 -4 10 -8 22 -9 18 -2 15 2 -13 19 -19 12 -38 21 -42 20 -4
-1 -3 7 3 19 8 14 15 17 24 10 7 -6 18 -6 25 -1 8 4 20 6 28 3 11 -4 11 -8 1
-20 -11 -14 -8 -15 22 -9 31 5 32 5 13 -6 -23 -11 -32 -38 -13 -38 6 0 10 5
10 10 0 6 10 10 23 9 21 0 21 -1 2 -9 -19 -8 -19 -9 3 -9 23 -1 30 13 11 24
-6 5 -2 13 12 23 17 12 26 13 40 4 15 -10 17 -9 13 3 -4 9 0 15 10 15 9 0 16
5 16 11 0 5 5 7 12 3 7 -4 8 -3 4 5 -5 8 -12 9 -20 2 -9 -8 -12 -3 -12 20 0
28 1 30 13 13 8 -11 13 -13 13 -5 0 11 3 11 16 0 10 -8 18 -9 22 -2 4 5 19 13
35 17 15 3 27 11 27 16 0 6 9 10 20 10 11 0 20 -5 20 -11 0 -7 9 -9 23 -5 13
3 32 -1 43 -9 18 -12 20 -12 19 3 0 10 -5 24 -10 32 -6 10 -2 10 12 -2 11 -10
25 -18 33 -18 10 0 10 -4 -1 -17 -13 -17 -13 -17 7 0 11 9 24 14 28 10 4 -4 4
1 0 11 -5 14 -9 15 -15 4 -7 -11 -9 -11 -9 1 0 16 -46 72 -53 64 -3 -3 5 -15
18 -28 14 -12 22 -25 19 -28 -4 -3 -17 7 -31 24 -14 16 -30 26 -35 22 -6 -3
-8 -1 -4 5 3 6 20 13 36 17 17 4 30 10 30 14 0 4 18 26 40 49 27 28 49 42 66
42 16 0 23 4 18 12 -4 7 -3 8 5 4 6 -4 19 -2 27 5 8 6 31 15 52 20 133 28 220
48 236 54 14 6 17 5 12 -3 -4 -8 -2 -10 7 -6 8 3 20 16 27 30 7 13 17 24 22
24 5 0 1 -11 -7 -24 l-16 -24 58 16 c32 9 61 20 64 25 4 5 13 6 20 1 20 -12
61 -6 183 27 60 16 111 27 114 25 3 -3 11 2 19 12 8 9 12 12 9 5 -7 -13 62 -9
123 7 23 6 39 6 48 -2 7 -6 13 -9 14 -7 7 42 6 58 -4 52 -7 -4 -5 2 3 13 22
29 24 30 16 10 -4 -13 -2 -17 7 -13 8 3 20 1 28 -4 12 -7 12 -9 0 -9 -8 0 -11
-3 -8 -6 4 -4 14 -1 24 7 11 9 14 10 9 2 -4 -7 -3 -13 3 -13 5 0 11 6 14 13 3
10 9 10 26 0 27 -17 32 -16 24 3 -5 13 -2 15 18 9 13 -5 47 -7 74 -5 28 1 68
3 91 4 24 1 41 6 41 13 0 7 -4 10 -8 7 -10 -6 -19 10 -25 40 -4 24 18 42 37
30 5 -3 9 0 9 7 0 7 7 4 16 -7 8 -10 13 -14 10 -8 -3 7 1 15 10 18 8 3 12 2 9
-3 -3 -5 -1 -12 5 -16 5 -3 10 0 10 8 0 15 20 27 46 27 8 0 14 -9 14 -20 0
-13 6 -19 18 -18 45 4 62 -2 62 -22 0 -17 7 -20 40 -20 22 0 40 5 40 11 0 5 5
7 10 4 6 -4 17 -2 25 5 9 7 15 8 20 0 8 -12 75 -14 75 -1 0 11 56 41 77 41 7
0 13 8 13 17 0 13 6 11 29 -11 18 -18 37 -27 52 -25 13 2 29 0 36 -4 15 -10
43 2 43 18 0 15 27 28 41 19 5 -3 9 1 9 8 0 10 3 9 9 -2 6 -8 7 -18 4 -24 -3
-5 -1 -6 5 -2 5 3 12 3 15 -1 2 -5 2 -3 1 4 -2 7 1 15 7 18 5 4 9 3 8 -2 -3
-20 2 -23 21 -13 16 8 28 8 50 -4 17 -8 32 -10 36 -5 3 5 17 9 31 9 15 0 34 7
43 15 9 8 25 16 36 18 10 1 25 6 32 10 6 5 17 5 22 2 25 -16 70 -23 76 -13 4
6 3 8 -3 5 -5 -3 -10 -1 -10 6 0 13 35 15 55 3 7 -4 12 -2 12 4 0 6 4 8 10 5
5 -3 12 6 16 20 3 14 13 25 21 25 8 0 11 -5 7 -12 -4 -7 7 2 25 20 17 18 31
37 31 43 0 5 9 9 20 9 10 0 24 9 30 20 6 11 15 20 21 20 6 0 7 -4 4 -10 -3 -5
-1 -10 4 -10 6 0 11 4 11 9 0 5 17 8 39 7 33 -3 38 0 34 15 -3 12 1 21 12 25
20 8 38 -15 25 -31 -5 -7 7 -10 38 -9 57 1 82 11 82 32 0 14 2 14 18 0 20 -18
54 -17 76 1 8 7 20 10 26 6 6 -4 9 -3 8 2 -4 11 5 13 47 13 24 0 35 -5 35 -15
0 -8 7 -15 15 -15 10 0 14 8 11 23 -2 12 4 30 13 41 9 10 14 21 11 24 -7 8 52
22 64 15 36 -23 143 9 153 46 3 12 11 17 20 14 8 -3 12 -12 9 -19 -9 -23 4
-15 14 9 8 18 9 16 6 -16 -2 -20 0 -40 5 -43 5 -3 9 2 9 11 0 11 5 15 14 12 8
-3 17 1 20 9 4 11 15 14 36 10 21 -3 30 0 30 10 0 8 4 14 9 14 5 0 11 6 14 14
4 10 0 13 -14 11 -15 -3 -19 1 -17 13 2 10 11 16 21 14 11 -2 17 4 17 15 0 15
2 16 10 3 8 -12 10 -12 10 -1 0 8 3 12 6 9 3 -4 1 -15 -5 -26 -9 -18 -8 -19
12 -15 12 3 29 7 37 10 8 4 21 5 28 4 6 -1 12 5 12 14 0 11 11 15 46 15 40 0
51 5 80 35 18 19 28 35 23 35 -5 0 -4 6 2 13 11 11 16 10 32 -6 10 -10 22 -16
25 -12 4 4 -1 11 -11 16 -9 6 -15 14 -12 20 4 5 1 9 -4 9 -6 0 -11 7 -11 15 0
25 33 55 60 55 22 1 23 2 8 11 -10 5 -18 15 -18 22 0 7 4 6 10 -3 6 -9 13 -11
18 -5 11 15 46 19 36 4 -4 -8 -3 -10 4 -5 6 4 22 1 34 -5 27 -15 80 -20 72 -7
-4 5 -13 7 -21 3 -14 -5 -14 -3 -2 11 8 9 12 27 11 40 -4 26 29 49 55 40 13
-5 14 -4 3 9 -7 9 -10 19 -6 22 4 4 11 1 16 -7 7 -11 9 -10 8 7 -2 23 -28 24
-56 1 -13 -12 -14 -11 -2 8 7 11 18 21 24 21 6 0 25 4 43 7 28 5 32 4 26 -11
-6 -16 -4 -16 18 2 13 11 28 26 32 33 12 18 24 15 30 -8 3 -11 10 -20 16 -20
14 0 14 37 0 45 -7 5 -3 15 11 30 20 21 20 24 5 39 -16 15 -16 20 -1 54 8 20
15 31 15 25 1 -7 8 -13 16 -13 8 0 16 6 17 13 2 14 4 43 7 71 0 11 6 16 15 13
7 -3 21 4 30 14 9 11 21 17 27 14 5 -4 8 -1 7 6 -3 13 40 20 47 8 10 -15 47 5
56 30 7 20 17 27 39 29 27 2 29 0 26 -28 -4 -33 13 -41 21 -10 3 11 9 20 13
20 4 0 7 17 6 38 -1 26 3 36 12 34 8 -1 11 2 6 9 -3 6 -1 15 6 19 17 11 42 1
33 -13 -4 -6 -1 -7 7 -2 10 6 9 11 -6 22 -15 11 -16 17 -6 33 8 13 9 27 2 45
-11 30 -6 32 22 5 12 -10 25 -17 29 -14 5 3 6 -3 2 -13 -6 -16 -5 -16 10 -4 9
7 14 18 11 23 -3 5 -7 21 -9 35 -1 14 -9 29 -16 34 -12 7 -11 9 1 10 8 1 20 2
25 4 6 1 16 3 23 3 7 1 10 7 7 12 -4 6 -10 8 -14 6 -4 -3 -8 1 -8 9 0 8 4 12
8 9 5 -3 21 3 36 13 15 10 24 12 20 6 -5 -8 -3 -13 3 -13 6 0 8 -5 4 -12 -4
-7 -3 -8 4 -4 7 4 12 15 12 24 0 12 3 14 8 5 6 -10 12 -10 28 3 13 11 15 17 7
20 -18 8 -16 24 5 47 16 19 16 20 -1 14 -12 -5 -16 -3 -11 5 5 7 -1 9 -19 4
-16 -4 -29 -1 -33 6 -5 8 -2 9 9 5 13 -5 16 -1 14 15 -1 11 4 23 11 25 6 3 12
-2 12 -11 0 -8 9 -20 19 -26 26 -13 38 -13 24 1 -12 12 12 97 32 111 6 4 6 8
1 8 -5 0 -18 -7 -28 -17 -11 -9 -18 -11 -18 -5 0 7 5 12 11 12 6 0 8 7 5 16
-3 8 -2 13 3 9 5 -3 12 1 14 7 4 10 7 10 14 1 6 -9 12 -6 22 10 12 19 12 21 0
12 -12 -9 -24 -10 -51 -6 -5 0 2 12 14 26 16 19 25 22 39 14 23 -12 25 3 4 21
-8 7 -15 17 -15 22 0 5 10 0 22 -12 23 -21 40 -15 44 16 2 12 -4 15 -21 11
-21 -3 -23 -2 -14 15 8 14 14 16 23 9 16 -13 26 -4 26 22 0 13 5 17 15 13 8
-3 15 -1 15 4 0 6 -5 10 -12 10 -6 0 -3 8 7 20 10 11 21 17 26 14 11 -6 23 41
14 56 -4 6 7 15 25 21 24 9 30 17 28 33 -2 16 -9 20 -30 18 -14 -2 -29 2 -33
8 -3 5 -10 8 -15 5 -5 -3 -12 0 -16 6 -4 7 -3 9 4 5 6 -3 13 -2 17 4 3 5 16
10 28 11 16 1 13 4 -12 10 -41 12 -34 24 8 14 17 -4 31 -13 31 -21 0 -16 16
-19 25 -4 4 6 11 8 16 5 5 -4 9 5 9 18 0 17 5 24 18 23 12 -1 18 7 20 27 3 23
7 26 28 23 13 -3 22 -1 19 4 -3 4 -2 10 2 13 5 2 3 2 -4 1 -6 -2 -17 5 -24 14
-11 14 -11 15 0 6 7 -7 21 -9 31 -7 18 5 18 7 4 21 -15 14 -15 17 0 27 9 7 13
14 10 17 -2 3 4 8 16 11 13 3 18 1 14 -6 -5 -8 -2 -7 7 1 15 14 69 16 69 3 0
-5 3 -18 6 -28 5 -17 5 -17 -9 0 -23 27 -31 2 -10 -30 17 -27 17 -28 -1 -13
-18 14 -19 14 -8 -7 15 -27 32 -39 32 -21 0 15 85 42 101 33 5 -4 11 0 14 7 3
8 15 14 25 15 13 1 18 -2 14 -9 -4 -7 -2 -8 5 -4 6 4 9 12 5 18 -4 6 3 8 17 6
17 -2 24 -9 23 -25 0 -18 2 -20 13 -12 10 9 13 6 14 -12 1 -21 2 -21 6 -4 3
11 11 24 19 28 8 4 14 17 14 28 0 12 5 19 13 16 6 -2 11 -10 9 -16 -4 -20 27
-24 44 -6 14 14 15 18 4 25 -8 5 -17 7 -21 4 -4 -2 -11 1 -15 7 -4 7 7 22 25
36 24 19 29 28 21 38 -13 16 4 32 40 37 24 3 38 19 39 46 1 7 -3 10 -9 7 -13
-8 0 28 13 36 5 4 -4 10 -22 14 -17 3 -37 15 -44 26 -8 10 -17 16 -21 12 -4
-4 -4 0 0 10 3 9 11 17 17 17 6 0 7 3 4 7 -4 3 -1 13 6 21 10 13 9 14 -1 8
-11 -7 -12 -4 -3 13 10 18 9 21 -9 21 -14 0 -19 -4 -14 -12 5 -10 4 -10 -6 -1
-11 10 -11 15 1 29 9 12 10 15 2 10 -13 -7 -15 1 -16 61 -1 12 -5 20 -9 17 -4
-3 -8 0 -8 6 0 6 -4 9 -8 6 -11 -7 -8 31 3 41 4 5 5 3 1 -4 -3 -6 -1 -15 6
-19 7 -4 10 -4 6 1 -4 4 -3 14 4 22 6 8 7 13 2 11 -9 -3 -14 4 -14 23 0 5 5 7
11 3 6 -3 3 6 -7 21 -22 34 -3 51 33 28 21 -14 23 -14 17 1 -8 22 3 49 17 40
8 -4 7 -9 -2 -15 -11 -7 -9 -9 6 -10 11 0 14 -3 8 -6 -7 -2 -13 -9 -13 -15 0
-7 5 -6 14 1 8 7 12 21 9 32 -4 15 -2 18 13 12 16 -6 17 -5 4 9 -9 9 -18 12
-21 6 -3 -5 -9 -2 -13 7 -9 26 2 35 29 25 27 -10 82 -3 91 12 3 5 11 5 18 -1
10 -8 12 -4 11 19 -1 23 1 27 14 21 9 -5 33 -8 54 -7 20 0 37 -2 37 -6 0 -12
17 -9 32 5 7 7 23 16 36 19 19 5 21 3 18 -18 -3 -14 -1 -22 5 -19 5 4 12 -1
15 -10 4 -9 12 -14 19 -12 6 3 16 -3 22 -12 13 -21 79 -23 75 -3 -1 8 2 11 7
8 16 -11 22 11 6 24 -10 8 -15 9 -15 2 0 -6 -7 -9 -15 -6 -10 4 -15 0 -16 -12
0 -12 -3 -14 -6 -6 -3 7 3 25 13 40 13 20 13 24 2 15 -12 -11 -17 -9 -26 13
-15 31 -15 44 -1 44 5 0 7 -5 3 -12 -4 -7 -3 -8 4 -4 6 4 9 14 5 24 -3 9 11
-1 31 -23 19 -22 36 -37 36 -32z m940 -277 c6 -12 24 -29 41 -38 17 -10 28
-22 25 -26 -3 -5 6 -7 20 -4 l25 4 -23 -35 c-17 -26 -27 -33 -39 -26 -9 5 -44
9 -78 10 -33 1 -61 6 -61 10 0 18 33 89 41 89 5 0 9 8 9 18 0 25 26 24 40 -2z
m8478 -5702 c79 -22 -6 -171 -227 -396 -41 -43 -79 -78 -83 -78 -22 0 -12 13
176 223 81 91 138 176 134 201 -3 19 -9 21 -63 18 -118 -5 -302 -81 -430 -177
-129 -96 -203 -178 -229 -253 -17 -48 -11 -57 28 -36 16 7 33 14 39 14 7 0 -4
-8 -23 -19 -43 -23 -55 -57 -17 -47 14 3 33 9 43 13 11 4 15 3 11 -4 -5 -7 15
-9 61 -6 l67 4 -40 -15 c-22 -7 -63 -16 -92 -19 -60 -7 -78 -16 -193 -98 -96
-68 -139 -93 -95 -55 44 38 44 38 122 91 72 49 86 68 59 78 -21 8 -204 -106
-371 -232 -89 -67 -122 -95 -207 -179 -43 -42 -78 -71 -78 -66 0 11 93 103
190 187 91 79 269 210 361 265 78 47 87 55 92 88 25 152 263 362 517 455 108
39 201 55 248 43z m-221 -490 c11 -24 7 -31 -69 -117 -122 -138 -196 -239
-250 -344 -48 -90 -83 -191 -72 -203 9 -8 41 36 81 109 20 36 72 127 116 201
128 217 198 305 183 229 -5 -29 -4 -30 11 -18 15 12 16 12 8 -1 -24 -43 -58
-80 -74 -80 -10 0 -25 -8 -33 -17 -21 -25 -93 -147 -169 -286 -67 -124 -112
-180 -138 -175 -25 6 -17 75 18 160 39 93 126 227 222 342 41 49 73 95 71 102
-3 15 65 124 78 124 3 0 10 -12 17 -26z"/>
<path d="M13687 4601 c-26 -3 -49 -10 -50 -16 -1 -5 -11 -10 -22 -10 -15 0
-21 -7 -22 -27 -1 -16 2 -28 8 -28 6 0 7 -6 2 -12 -4 -7 -6 -21 -4 -32 1 -10
-7 -27 -18 -37 -25 -23 -31 -25 -42 -8 -6 10 -17 3 -44 -26 -35 -40 -40 -60
-14 -60 17 0 52 -33 62 -59 5 -13 3 -17 -7 -13 -34 13 -48 -39 -17 -67 18 -16
19 -15 25 19 7 34 26 50 26 20 0 -8 5 -15 10 -15 6 0 10 7 10 16 0 8 4 13 10
9 5 -3 8 -11 6 -18 -1 -7 -1 -9 1 -4 7 11 33 9 33 -3 0 -5 9 -10 20 -10 11 0
20 -4 20 -10 0 -11 73 -13 110 -3 l25 7 -30 7 -30 7 33 1 c17 0 33 6 33 11 1
6 2 15 3 21 0 6 9 16 19 23 9 7 17 17 17 22 0 5 14 17 31 27 20 11 29 23 25
32 -3 8 -1 17 4 20 6 4 10 0 10 -7 0 -10 3 -9 10 2 5 9 5 19 -1 26 -6 8 -5 14
5 17 11 4 13 1 10 -11 -5 -14 -4 -15 5 -2 7 10 11 11 11 3 0 -7 5 -13 12 -13
6 0 -1 14 -17 30 l-29 30 25 0 c16 0 20 3 11 9 -16 9 -6 61 12 61 7 0 6 4 -3
9 -8 5 -9 11 -3 15 6 3 13 2 17 -4 10 -16 45 -12 45 5 0 8 -4 15 -10 15 -5 0
-9 3 -9 8 5 30 -3 32 -143 30 -79 0 -164 -4 -191 -7z"/>
<path d="M14289 4597 c-19 -15 -41 -75 -32 -90 4 -6 -2 -8 -18 -4 -23 6 -23 5
-5 -8 11 -8 26 -16 33 -16 7 -1 19 -2 26 -3 6 -1 21 8 32 19 19 20 19 20 5 1
-12 -16 -9 -15 16 4 17 14 29 29 26 34 -3 5 0 6 7 2 6 -4 24 0 39 11 15 10 36
22 46 28 44 23 28 33 -53 34 -66 0 -81 -2 -81 -15 0 -8 -5 -12 -10 -9 -6 4 -8
11 -5 16 9 13 -7 11 -26 -4z"/>
</g>
</svg>
